<svg id="e2VoZKrSehy1" xmlns="http://www.w3.org/2000/svg" xmlns:xlink="http://www.w3.org/1999/xlink" viewBox="0 0 40 40" shape-rendering="geometricPrecision" text-rendering="geometricPrecision"><defs><linearGradient id="e2VoZKrSehy6-fill" x1="3476.22" y1="3817.42" x2="3786.199" y2="3347.452" spreadMethod="pad" gradientUnits="userSpaceOnUse" gradientTransform="matrix(1 0 0 1 0 0)"><stop id="e2VoZKrSehy6-fill-0" offset="0%" stop-color="rgb(235,115,192)"/><stop id="e2VoZKrSehy6-fill-1" offset="100%" stop-color="rgb(235,108,189)"/></linearGradient><linearGradient id="e2VoZKrSehy12-fill" x1="3315.28" y1="3934.61" x2="3756.818" y2="3460.764" spreadMethod="pad" gradientUnits="userSpaceOnUse" gradientTransform="matrix(1 0 0 1 0 0)"><stop id="e2VoZKrSehy12-fill-0" offset="0%" stop-color="rgb(235,117,193)"/><stop id="e2VoZKrSehy12-fill-1" offset="100%" stop-color="rgb(236,83,177)"/></linearGradient><linearGradient id="e2VoZKrSehy18-fill" x1="3694.03" y1="3717.73" x2="3974.031" y2="3247.729" spreadMethod="pad" gradientUnits="userSpaceOnUse" gradientTransform="matrix(1 0 0 1 0 0)"><stop id="e2VoZKrSehy18-fill-0" offset="0%" stop-color="rgb(236,98,184)"/><stop id="e2VoZKrSehy18-fill-1" offset="100%" stop-color="rgb(236,96,183)"/></linearGradient><linearGradient id="e2VoZKrSehy24-fill" x1="3805.28" y1="3815.39" x2="4055.275" y2="3595.395" spreadMethod="pad" gradientUnits="userSpaceOnUse" gradientTransform="matrix(1 0 0 1 0 0)"><stop id="e2VoZKrSehy24-fill-0" offset="0%" stop-color="rgb(236,109,189)"/><stop id="e2VoZKrSehy24-fill-1" offset="100%" stop-color="rgb(237,77,175)"/></linearGradient><linearGradient id="e2VoZKrSehy30-fill" x1="3686.85" y1="3529.61" x2="4126.851" y2="3279.61" spreadMethod="pad" gradientUnits="userSpaceOnUse" gradientTransform="matrix(1 0 0 1 0 0)"><stop id="e2VoZKrSehy30-fill-0" offset="0%" stop-color="rgb(237,68,171)"/><stop id="e2VoZKrSehy30-fill-1" offset="100%" stop-color="rgb(246,132,200)"/></linearGradient><linearGradient id="e2VoZKrSehy36-fill" x1="3998.88" y1="3744.3" x2="4218.88" y2="3554.3" spreadMethod="pad" gradientUnits="userSpaceOnUse" gradientTransform="matrix(1 0 0 1 0 0)"><stop id="e2VoZKrSehy36-fill-0" offset="0%" stop-color="rgb(239,56,165)"/><stop id="e2VoZKrSehy36-fill-1" offset="100%" stop-color="rgb(246,128,198)"/></linearGradient><linearGradient id="e2VoZKrSehy42-fill" x1="4032.78" y1="3789.92" x2="4242.78" y2="3409.919" spreadMethod="pad" gradientUnits="userSpaceOnUse" gradientTransform="matrix(1 0 0 1 0 0)"><stop id="e2VoZKrSehy42-fill-0" offset="0%" stop-color="rgb(238,29,153)"/><stop id="e2VoZKrSehy42-fill-1" offset="100%" stop-color="rgb(249,177,220)"/></linearGradient><linearGradient id="e2VoZKrSehy48-fill" x1="3681.85" y1="3236.17" x2="3911.851" y2="2896.169" spreadMethod="pad" gradientUnits="userSpaceOnUse" gradientTransform="matrix(1 0 0 1 0 0)"><stop id="e2VoZKrSehy48-fill-0" offset="0%" stop-color="rgb(238,53,164)"/><stop id="e2VoZKrSehy48-fill-1" offset="100%" stop-color="rgb(243,100,185)"/></linearGradient><linearGradient id="e2VoZKrSehy54-fill" x1="3784.35" y1="3407.11" x2="4224.321" y2="3067.132" spreadMethod="pad" gradientUnits="userSpaceOnUse" gradientTransform="matrix(1 0 0 1 0 0)"><stop id="e2VoZKrSehy54-fill-0" offset="0%" stop-color="rgb(239,46,161)"/><stop id="e2VoZKrSehy54-fill-1" offset="100%" stop-color="rgb(249,178,220)"/></linearGradient><linearGradient id="e2VoZKrSehy60-fill" x1="3556.22" y1="3022.11" x2="3956.22" y2="2672.11" spreadMethod="pad" gradientUnits="userSpaceOnUse" gradientTransform="matrix(1 0 0 1 0 0)"><stop id="e2VoZKrSehy60-fill-0" offset="0%" stop-color="rgb(236,0,140)"/><stop id="e2VoZKrSehy60-fill-1" offset="100%" stop-color="rgb(244,110,190)"/></linearGradient><linearGradient id="e2VoZKrSehy66-fill" x1="2999.96974" y1="2804.919755" x2="3557.091796" y2="2444.941675" spreadMethod="pad" gradientUnits="userSpaceOnUse" gradientTransform="matrix(1 0 0 1 0 0)"><stop id="e2VoZKrSehy66-fill-0" offset="0%" stop-color="rgb(13,237,237)"/><stop id="e2VoZKrSehy66-fill-1" offset="100%" stop-color="rgb(36,104,239)"/></linearGradient><linearGradient id="e2VoZKrSehy72-fill" x1="2976.85" y1="3106.79" x2="3536.851" y2="2656.79" spreadMethod="pad" gradientUnits="userSpaceOnUse" gradientTransform="matrix(1 0 0 1 0 0)"><stop id="e2VoZKrSehy72-fill-0" offset="0%" stop-color="rgb(40,116,239)"/><stop id="e2VoZKrSehy72-fill-1" offset="100%" stop-color="rgb(75,194,241)"/></linearGradient><linearGradient id="e2VoZKrSehy78-fill" x1="3196.53" y1="3532.11" x2="3486.53" y2="3172.109" spreadMethod="pad" gradientUnits="userSpaceOnUse" gradientTransform="matrix(1 0 0 1 0 0)"><stop id="e2VoZKrSehy78-fill-0" offset="0%" stop-color="rgb(235,117,193)"/><stop id="e2VoZKrSehy78-fill-1" offset="100%" stop-color="rgb(236,109,189)"/></linearGradient><linearGradient id="e2VoZKrSehy84-fill" x1="3264.97" y1="3437.11" x2="3674.999" y2="3077.084" spreadMethod="pad" gradientUnits="userSpaceOnUse" gradientTransform="matrix(1 0 0 1 0 0)"><stop id="e2VoZKrSehy84-fill-0" offset="0%" stop-color="rgb(236,109,189)"/><stop id="e2VoZKrSehy84-fill-1" offset="100%" stop-color="rgb(235,94,182)"/></linearGradient><linearGradient id="e2VoZKrSehy90-fill" x1="3339.03" y1="3145.86" x2="3759.006" y2="2695.886" spreadMethod="pad" gradientUnits="userSpaceOnUse" gradientTransform="matrix(1 0 0 1 0 0)"><stop id="e2VoZKrSehy90-fill-0" offset="0%" stop-color="rgb(240,54,164)"/><stop id="e2VoZKrSehy90-fill-1" offset="100%" stop-color="rgb(239,41,158)"/></linearGradient><linearGradient id="e2VoZKrSehy96-fill" x1="3363.72" y1="3340.55" x2="3783.745" y2="3000.53" spreadMethod="pad" gradientUnits="userSpaceOnUse" gradientTransform="matrix(1 0 0 1 0 0)"><stop id="e2VoZKrSehy96-fill-0" offset="0%" stop-color="rgb(236,79,176)"/><stop id="e2VoZKrSehy96-fill-1" offset="100%" stop-color="rgb(238,53,164)"/></linearGradient><linearGradient id="e2VoZKrSehy102-fill" x1="2769.66" y1="3293.67" x2="3329.625" y2="2813.7" spreadMethod="pad" gradientUnits="userSpaceOnUse" gradientTransform="matrix(1 0 0 1 0 0)"><stop id="e2VoZKrSehy102-fill-0" offset="0%" stop-color="rgb(51,154,239)"/><stop id="e2VoZKrSehy102-fill-1" offset="100%" stop-color="rgb(89,214,236)"/></linearGradient><linearGradient id="e2VoZKrSehy108-fill" x1="2784.35" y1="3468.98" x2="3344.352" y2="3138.979" spreadMethod="pad" gradientUnits="userSpaceOnUse" gradientTransform="matrix(1 0 0 1 0 0)"><stop id="e2VoZKrSehy108-fill-0" offset="0%" stop-color="rgb(115,209,235)"/><stop id="e2VoZKrSehy108-fill-1" offset="100%" stop-color="rgb(99,152,236)"/></linearGradient><linearGradient id="e2VoZKrSehy114-fill" x1="2704.35" y1="3595.55" x2="3104.351" y2="3235.549" spreadMethod="pad" gradientUnits="userSpaceOnUse" gradientTransform="matrix(1 0 0 1 0 0)"><stop id="e2VoZKrSehy114-fill-0" offset="0%" stop-color="rgb(104,137,235)"/><stop id="e2VoZKrSehy114-fill-1" offset="100%" stop-color="rgb(118,214,235)"/></linearGradient><linearGradient id="e2VoZKrSehy120-fill" x1="2949.66" y1="3859.61" x2="3279.661" y2="3499.609" spreadMethod="pad" gradientUnits="userSpaceOnUse" gradientTransform="matrix(1 0 0 1 0 0)"><stop id="e2VoZKrSehy120-fill-0" offset="0%" stop-color="rgb(115,209,235)"/><stop id="e2VoZKrSehy120-fill-1" offset="100%" stop-color="rgb(96,125,239)"/></linearGradient><linearGradient id="e2VoZKrSehy126-fill" x1="3104.35" y1="3747.42" x2="3394.35" y2="3387.42" spreadMethod="pad" gradientUnits="userSpaceOnUse" gradientTransform="matrix(1 0 0 1 0 0)"><stop id="e2VoZKrSehy126-fill-0" offset="0%" stop-color="rgb(235,117,193)"/><stop id="e2VoZKrSehy126-fill-1" offset="100%" stop-color="rgb(238,98,184)"/></linearGradient><linearGradient id="e2VoZKrSehy132-fill" x1="3254.35" y1="3959.92" x2="3464.34" y2="3519.942" spreadMethod="pad" gradientUnits="userSpaceOnUse" gradientTransform="matrix(1 0 0 1 0 0)"><stop id="e2VoZKrSehy132-fill-0" offset="0%" stop-color="rgb(238,53,164)"/><stop id="e2VoZKrSehy132-fill-1" offset="100%" stop-color="rgb(239,91,181)"/></linearGradient><linearGradient id="e2VoZKrSehy138-fill" x1="3325.91" y1="4061.95" x2="3811.175" y2="3801.564" spreadMethod="pad" gradientUnits="userSpaceOnUse" gradientTransform="matrix(1 0 0 1 0 0)"><stop id="e2VoZKrSehy138-fill-0" offset="0%" stop-color="rgb(240,47,161)"/><stop id="e2VoZKrSehy138-fill-1" offset="100%" stop-color="rgb(237,78,175)"/></linearGradient><linearGradient id="e2VoZKrSehy144-fill" x1="3486.85" y1="4197.42" x2="3776.281" y2="3799.452" spreadMethod="pad" gradientUnits="userSpaceOnUse" gradientTransform="matrix(1 0 0 1 0 0)"><stop id="e2VoZKrSehy144-fill-0" offset="0%" stop-color="rgb(238,28,153)"/><stop id="e2VoZKrSehy144-fill-1" offset="100%" stop-color="rgb(237,73,173)"/></linearGradient><linearGradient id="e2VoZKrSehy150-fill" x1="2614.5" y1="3760.86" x2="2934.499" y2="3320.862" spreadMethod="pad" gradientUnits="userSpaceOnUse" gradientTransform="matrix(1 0 0 1 0 0)"><stop id="e2VoZKrSehy150-fill-0" offset="0%" stop-color="rgb(104,174,235)"/><stop id="e2VoZKrSehy150-fill-1" offset="100%" stop-color="rgb(116,201,235)"/></linearGradient><linearGradient id="e2VoZKrSehy156-fill" x1="2600.44" y1="4142.73" x2="2930.441" y2="3662.729" spreadMethod="pad" gradientUnits="userSpaceOnUse" gradientTransform="matrix(1 0 0 1 0 0)"><stop id="e2VoZKrSehy156-fill-0" offset="0%" stop-color="rgb(116,130,235)"/><stop id="e2VoZKrSehy156-fill-1" offset="100%" stop-color="rgb(134,220,242)"/></linearGradient><linearGradient id="e2VoZKrSehy162-fill" x1="2526.53" y1="4142.11" x2="2936.53" y2="3742.11" spreadMethod="pad" gradientUnits="userSpaceOnUse" gradientTransform="matrix(1 0 0 1 0 0)"><stop id="e2VoZKrSehy162-fill-0" offset="0%" stop-color="rgb(122,96,236)"/><stop id="e2VoZKrSehy162-fill-1" offset="100%" stop-color="rgb(102,244,242)"/></linearGradient><linearGradient id="e2VoZKrSehy168-fill" x1="2566.53" y1="4102.42" x2="2826.757" y2="3994.935" spreadMethod="pad" gradientUnits="userSpaceOnUse" gradientTransform="matrix(1 0 0 1 0 0)"><stop id="e2VoZKrSehy168-fill-0" offset="0%" stop-color="rgb(23,123,238)"/><stop id="e2VoZKrSehy168-fill-1" offset="100%" stop-color="rgb(152,239,247)"/></linearGradient><linearGradient id="e2VoZKrSehy174-fill" x1="2311.69" y1="3987.73" x2="2459.486" y2="3741.404" spreadMethod="pad" gradientUnits="userSpaceOnUse" gradientTransform="matrix(1 0 0 1 0 0)"><stop id="e2VoZKrSehy174-fill-0" offset="0%" stop-color="rgb(143,247,242)"/><stop id="e2VoZKrSehy174-fill-1" offset="100%" stop-color="rgb(13,24,237)"/></linearGradient><linearGradient id="e2VoZKrSehy180-fill" x1="2224.66" y1="3953.67" x2="2574.661" y2="3693.67" spreadMethod="pad" gradientUnits="userSpaceOnUse" gradientTransform="matrix(1 0 0 1 0 0)"><stop id="e2VoZKrSehy180-fill-0" offset="0%" stop-color="rgb(53,238,223)"/><stop id="e2VoZKrSehy180-fill-1" offset="100%" stop-color="rgb(54,119,238)"/></linearGradient><linearGradient id="e2VoZKrSehy186-fill" x1="2497.47" y1="3370.86" x2="2877.47" y2="2820.86" spreadMethod="pad" gradientUnits="userSpaceOnUse" gradientTransform="matrix(1 0 0 1 0 0)"><stop id="e2VoZKrSehy186-fill-0" offset="0%" stop-color="rgb(8,100,237)"/><stop id="e2VoZKrSehy186-fill-1" offset="100%" stop-color="rgb(32,228,238)"/></linearGradient><linearGradient id="e2VoZKrSehy192-fill" x1="2719.35" y1="3196.48" x2="2959.35" y2="2646.48" spreadMethod="pad" gradientUnits="userSpaceOnUse" gradientTransform="matrix(1 0 0 1 0 0)"><stop id="e2VoZKrSehy192-fill-0" offset="0%" stop-color="rgb(64,229,238)"/><stop id="e2VoZKrSehy192-fill-1" offset="100%" stop-color="rgb(14,103,237)"/></linearGradient><linearGradient id="e2VoZKrSehy198-fill" x1="2842.16" y1="2825.23" x2="3242.16" y2="2465.23" spreadMethod="pad" gradientUnits="userSpaceOnUse" gradientTransform="matrix(1 0 0 1 0 0)"><stop id="e2VoZKrSehy198-fill-0" offset="0%" stop-color="rgb(10,191,237)"/><stop id="e2VoZKrSehy198-fill-1" offset="100%" stop-color="rgb(0,122,236)"/></linearGradient><linearGradient id="e2VoZKrSehy204-fill" x1="3655.91" y1="4347.42" x2="3785.289" y2="3876.952" spreadMethod="pad" gradientUnits="userSpaceOnUse" gradientTransform="matrix(1 0 0 1 0 0)"><stop id="e2VoZKrSehy204-fill-0" offset="0%" stop-color="rgb(237,16,147)"/><stop id="e2VoZKrSehy204-fill-1" offset="100%" stop-color="rgb(244,125,196)"/></linearGradient><linearGradient id="e2VoZKrSehy210-fill" x1="3768.1" y1="4127.42" x2="3964.748" y2="3785.423" spreadMethod="pad" gradientUnits="userSpaceOnUse" gradientTransform="matrix(1 0 0 1 0 0)"><stop id="e2VoZKrSehy210-fill-0" offset="0%" stop-color="rgb(237,71,172)"/><stop id="e2VoZKrSehy210-fill-1" offset="100%" stop-color="rgb(249,168,216)"/></linearGradient><linearGradient id="e2VoZKrSehy216-fill" x1="3731.69" y1="4096.17" x2="4061.69" y2="3746.169" spreadMethod="pad" gradientUnits="userSpaceOnUse" gradientTransform="matrix(1 0 0 1 0 0)"><stop id="e2VoZKrSehy216-fill-0" offset="0%" stop-color="rgb(237,70,172)"/><stop id="e2VoZKrSehy216-fill-1" offset="100%" stop-color="rgb(249,176,219)"/></linearGradient><linearGradient id="e2VoZKrSehy222-fill" x1="3769.03" y1="4012.42" x2="4099.031" y2="3742.42" spreadMethod="pad" gradientUnits="userSpaceOnUse" gradientTransform="matrix(1 0 0 1 0 0)"><stop id="e2VoZKrSehy222-fill-0" offset="0%" stop-color="rgb(235,94,182)"/><stop id="e2VoZKrSehy222-fill-1" offset="100%" stop-color="rgb(246,131,199)"/></linearGradient><linearGradient id="e2VoZKrSehy228-fill" x1="3964.19" y1="3962.58" x2="4184.191" y2="3692.579" spreadMethod="pad" gradientUnits="userSpaceOnUse" gradientTransform="matrix(1 0 0 1 0 0)"><stop id="e2VoZKrSehy228-fill-0" offset="0%" stop-color="rgb(239,34,155)"/><stop id="e2VoZKrSehy228-fill-1" offset="100%" stop-color="rgb(249,168,216)"/></linearGradient><linearGradient id="e2VoZKrSehy234-fill" x1="2277.78" y1="3731.48" x2="2602.102" y2="3379.359" spreadMethod="pad" gradientUnits="userSpaceOnUse" gradientTransform="matrix(1 0 0 1 0 0)"><stop id="e2VoZKrSehy234-fill-0" offset="0%" stop-color="rgb(24,92,238)"/><stop id="e2VoZKrSehy234-fill-1" offset="100%" stop-color="rgb(50,238,229)"/></linearGradient><linearGradient id="e2VoZKrSehy240-fill" x1="2324.66" y1="3337.73" x2="2744.685" y2="3167.72" spreadMethod="pad" gradientUnits="userSpaceOnUse" gradientTransform="matrix(1 0 0 1 0 0)"><stop id="e2VoZKrSehy240-fill-0" offset="0%" stop-color="rgb(12,117,237)"/><stop id="e2VoZKrSehy240-fill-1" offset="100%" stop-color="rgb(37,188,239)"/></linearGradient><linearGradient id="e2VoZKrSehy246-fill" x1="2308.72" y1="3693.36" x2="2728.696" y2="3253.386" spreadMethod="pad" gradientUnits="userSpaceOnUse" gradientTransform="matrix(1 0 0 1 0 0)"><stop id="e2VoZKrSehy246-fill-0" offset="0%" stop-color="rgb(101,236,234)"/><stop id="e2VoZKrSehy246-fill-1" offset="100%" stop-color="rgb(53,106,238)"/></linearGradient><linearGradient id="e2VoZKrSehy252-fill" x1="2889.35" y1="4083.05" x2="3099.364" y2="3603.017" spreadMethod="pad" gradientUnits="userSpaceOnUse" gradientTransform="matrix(1 0 0 1 0 0)"><stop id="e2VoZKrSehy252-fill-0" offset="0%" stop-color="rgb(89,148,236)"/><stop id="e2VoZKrSehy252-fill-1" offset="100%" stop-color="rgb(147,235,247)"/></linearGradient><linearGradient id="e2VoZKrSehy258-fill" x1="2876.53" y1="3933.36" x2="3206.53" y2="3613.36" spreadMethod="pad" gradientUnits="userSpaceOnUse" gradientTransform="matrix(1 0 0 1 0 0)"><stop id="e2VoZKrSehy258-fill-0" offset="0%" stop-color="rgb(94,87,236)"/><stop id="e2VoZKrSehy258-fill-1" offset="100%" stop-color="rgb(109,215,244)"/></linearGradient></defs><g id="e2VoZKrSehy2" transform="matrix(0.15 0 0 0.15 -48.61478 1.633733)"><g id="e2VoZKrSehy3" transform="matrix(0.133333 0 0 -0.133333 25.1043 563.43)"><g id="e2VoZKrSehy4" clip-path="url(#e2VoZKrSehy7)"><g id="e2VoZKrSehy5"><path id="e2VoZKrSehy6" d="M3446.63,3482.42L3726.63,3302.42L3756.63,3772.42Z" fill="url(#e2VoZKrSehy6-fill)" stroke="none" stroke-width="1"/></g><clipPath id="e2VoZKrSehy7"><path id="e2VoZKrSehy8" d="M3446.63,3482.42L3726.63,3302.42L3756.63,3772.42Z" fill="rgb(0,0,0)" stroke="none" stroke-width="1"/></clipPath></g></g><g id="e2VoZKrSehy9" transform="matrix(0.133333 0 0 -0.133333 25.1043 563.43)"><g id="e2VoZKrSehy10" clip-path="url(#e2VoZKrSehy13)"><g id="e2VoZKrSehy11"><path id="e2VoZKrSehy12" d="M3446.63,3482.42L3756.63,3772.42L3341.63,3962.42Z" fill="url(#e2VoZKrSehy12-fill)" stroke="none" stroke-width="1"/></g><clipPath id="e2VoZKrSehy13"><path id="e2VoZKrSehy14" d="M3446.63,3482.42L3756.63,3772.42L3341.63,3962.42Z" fill="rgb(0,0,0)" stroke="none" stroke-width="1"/></clipPath></g></g><g id="e2VoZKrSehy15" transform="matrix(0.133333 0 0 -0.133333 25.1043 563.43)"><g id="e2VoZKrSehy16" clip-path="url(#e2VoZKrSehy19)"><g id="e2VoZKrSehy17"><path id="e2VoZKrSehy18" d="M3726.63,3302.42L3756.63,3772.42L4006.63,3552.42Z" fill="url(#e2VoZKrSehy18-fill)" stroke="none" stroke-width="1"/></g><clipPath id="e2VoZKrSehy19"><path id="e2VoZKrSehy20" d="M3726.63,3302.42L3756.63,3772.42L4006.63,3552.42Z" fill="rgb(0,0,0)" stroke="none" stroke-width="1"/></clipPath></g></g><g id="e2VoZKrSehy21" transform="matrix(0.133333 0 0 -0.133333 25.1043 563.43)"><g id="e2VoZKrSehy22" clip-path="url(#e2VoZKrSehy25)"><g id="e2VoZKrSehy23"><path id="e2VoZKrSehy24" d="M3756.63,3772.42L3996.63,3732.42L4006.63,3552.42Z" fill="url(#e2VoZKrSehy24-fill)" stroke="none" stroke-width="1"/></g><clipPath id="e2VoZKrSehy25"><path id="e2VoZKrSehy26" d="M3756.63,3772.42L3996.63,3732.42L4006.63,3552.42Z" fill="rgb(0,0,0)" stroke="none" stroke-width="1"/></clipPath></g></g><g id="e2VoZKrSehy27" transform="matrix(0.133333 0 0 -0.133333 25.1043 563.43)"><g id="e2VoZKrSehy28" clip-path="url(#e2VoZKrSehy31)"><g id="e2VoZKrSehy29"><path id="e2VoZKrSehy30" d="M3726.63,3302.42L4006.63,3552.42L4166.63,3362.42Z" fill="url(#e2VoZKrSehy30-fill)" stroke="none" stroke-width="1"/></g><clipPath id="e2VoZKrSehy31"><path id="e2VoZKrSehy32" d="M3726.63,3302.42L4006.63,3552.42L4166.63,3362.42Z" fill="rgb(0,0,0)" stroke="none" stroke-width="1"/></clipPath></g></g><g id="e2VoZKrSehy33" transform="matrix(0.133333 0 0 -0.133333 25.1043 563.43)"><g id="e2VoZKrSehy34" clip-path="url(#e2VoZKrSehy37)"><g id="e2VoZKrSehy35"><path id="e2VoZKrSehy36" d="M3996.63,3732.42L4006.63,3552.42L4216.63,3742.42Z" fill="url(#e2VoZKrSehy36-fill)" stroke="none" stroke-width="1"/></g><clipPath id="e2VoZKrSehy37"><path id="e2VoZKrSehy38" d="M3996.63,3732.42L4006.63,3552.42L4216.63,3742.42Z" fill="rgb(0,0,0)" stroke="none" stroke-width="1"/></clipPath></g></g><g id="e2VoZKrSehy39" transform="matrix(0.133333 0 0 -0.133333 25.1043 563.43)"><g id="e2VoZKrSehy40" clip-path="url(#e2VoZKrSehy43)"><g id="e2VoZKrSehy41"><path id="e2VoZKrSehy42" d="M4006.63,3552.42L4166.63,3362.42L4216.63,3742.42Z" fill="url(#e2VoZKrSehy42-fill)" stroke="none" stroke-width="1"/></g><clipPath id="e2VoZKrSehy43"><path id="e2VoZKrSehy44" d="M4006.63,3552.42L4166.63,3362.42L4216.63,3742.42Z" fill="rgb(0,0,0)" stroke="none" stroke-width="1"/></clipPath></g></g><g id="e2VoZKrSehy45" transform="matrix(0.133333 0 0 -0.133333 25.1043 563.43)"><g id="e2VoZKrSehy46" clip-path="url(#e2VoZKrSehy49)"><g id="e2VoZKrSehy47"><path id="e2VoZKrSehy48" d="M3726.63,3302.42L3736.63,2962.42L3956.63,3022.42Z" fill="url(#e2VoZKrSehy48-fill)" stroke="none" stroke-width="1"/></g><clipPath id="e2VoZKrSehy49"><path id="e2VoZKrSehy50" d="M3726.63,3302.42L3736.63,2962.42L3956.63,3022.42Z" fill="rgb(0,0,0)" stroke="none" stroke-width="1"/></clipPath></g></g><g id="e2VoZKrSehy51" transform="matrix(0.133333 0 0 -0.133333 25.1043 563.43)"><g id="e2VoZKrSehy52" clip-path="url(#e2VoZKrSehy55)"><g id="e2VoZKrSehy53"><path id="e2VoZKrSehy54" d="M3726.63,3302.42L4166.63,3362.42L3956.63,3022.42Z" fill="url(#e2VoZKrSehy54-fill)" stroke="none" stroke-width="1"/></g><clipPath id="e2VoZKrSehy55"><path id="e2VoZKrSehy56" d="M3726.63,3302.42L4166.63,3362.42L3956.63,3022.42Z" fill="rgb(0,0,0)" stroke="none" stroke-width="1"/></clipPath></g></g><g id="e2VoZKrSehy57" transform="matrix(0.133333 0 0 -0.133333 25.1043 563.43)"><g id="e2VoZKrSehy58" clip-path="url(#e2VoZKrSehy61)"><g id="e2VoZKrSehy59"><path id="e2VoZKrSehy60" d="M3736.63,2962.42L3956.63,3022.42L3556.63,2672.42Z" fill="url(#e2VoZKrSehy60-fill)" stroke="none" stroke-width="1"/></g><clipPath id="e2VoZKrSehy61"><path id="e2VoZKrSehy62" d="M3736.63,2962.42L3956.63,3022.42L3556.63,2672.42Z" fill="rgb(0,0,0)" stroke="none" stroke-width="1"/></clipPath></g></g><g id="e2VoZKrSehy63" transform="matrix(0.133333 0 0 -0.133333 25.1043 563.43)"><g id="e2VoZKrSehy64" clip-path="url(#e2VoZKrSehy67)"><g id="e2VoZKrSehy65"><path id="e2VoZKrSehy66" d="M3216.63,2442.42L3556.63,2672.42L2996.63,2802.42Z" fill="url(#e2VoZKrSehy66-fill)" stroke="none" stroke-width="1"/></g><clipPath id="e2VoZKrSehy67"><path id="e2VoZKrSehy68" d="M3216.63,2442.42L3556.63,2672.42L2996.63,2802.42Z" fill="rgb(0,0,0)" stroke="none" stroke-width="1"/></clipPath></g></g><g id="e2VoZKrSehy69" transform="matrix(0.133333 0 0 -0.133333 25.1043 563.43)"><g id="e2VoZKrSehy70" clip-path="url(#e2VoZKrSehy73)"><g id="e2VoZKrSehy71"><path id="e2VoZKrSehy72" d="M2996.63,2802.42L3556.63,2672.42L3316.63,3122.42Z" fill="url(#e2VoZKrSehy72-fill)" stroke="none" stroke-width="1"/></g><clipPath id="e2VoZKrSehy73"><path id="e2VoZKrSehy74" d="M2996.63,2802.42L3556.63,2672.42L3316.63,3122.42Z" fill="rgb(0,0,0)" stroke="none" stroke-width="1"/></clipPath></g></g><g id="e2VoZKrSehy75" transform="matrix(0.133333 0 0 -0.133333 25.1043 563.43)"><g id="e2VoZKrSehy76" clip-path="url(#e2VoZKrSehy79)"><g id="e2VoZKrSehy77"><path id="e2VoZKrSehy78" d="M3156.63,3452.42L3446.63,3482.42L3316.63,3122.42Z" fill="url(#e2VoZKrSehy78-fill)" stroke="none" stroke-width="1"/></g><clipPath id="e2VoZKrSehy79"><path id="e2VoZKrSehy80" d="M3156.63,3452.42L3446.63,3482.42L3316.63,3122.42Z" fill="rgb(0,0,0)" stroke="none" stroke-width="1"/></clipPath></g></g><g id="e2VoZKrSehy81" transform="matrix(0.133333 0 0 -0.133333 25.1043 563.43)"><g id="e2VoZKrSehy82" clip-path="url(#e2VoZKrSehy85)"><g id="e2VoZKrSehy83"><path id="e2VoZKrSehy84" d="M3446.63,3482.42L3726.63,3302.42L3316.63,3122.42Z" fill="url(#e2VoZKrSehy84-fill)" stroke="none" stroke-width="1"/></g><clipPath id="e2VoZKrSehy85"><path id="e2VoZKrSehy86" d="M3446.63,3482.42L3726.63,3302.42L3316.63,3122.42Z" fill="rgb(0,0,0)" stroke="none" stroke-width="1"/></clipPath></g></g><g id="e2VoZKrSehy87" transform="matrix(0.133333 0 0 -0.133333 25.1043 563.43)"><g id="e2VoZKrSehy88" clip-path="url(#e2VoZKrSehy91)"><g id="e2VoZKrSehy89"><path id="e2VoZKrSehy90" d="M3556.63,2672.42L3736.63,2962.42L3316.63,3122.42Z" fill="url(#e2VoZKrSehy90-fill)" stroke="none" stroke-width="1"/></g><clipPath id="e2VoZKrSehy91"><path id="e2VoZKrSehy92" d="M3556.63,2672.42L3736.63,2962.42L3316.63,3122.42Z" fill="rgb(0,0,0)" stroke="none" stroke-width="1"/></clipPath></g></g><g id="e2VoZKrSehy93" transform="matrix(0.133333 0 0 -0.133333 25.1043 563.43)"><g id="e2VoZKrSehy94" clip-path="url(#e2VoZKrSehy97)"><g id="e2VoZKrSehy95"><path id="e2VoZKrSehy96" d="M3726.63,3302.42L3736.63,2962.42L3316.63,3122.42Z" fill="url(#e2VoZKrSehy96-fill)" stroke="none" stroke-width="1"/></g><clipPath id="e2VoZKrSehy97"><path id="e2VoZKrSehy98" d="M3726.63,3302.42L3736.63,2962.42L3316.63,3122.42Z" fill="rgb(0,0,0)" stroke="none" stroke-width="1"/></clipPath></g></g><g id="e2VoZKrSehy99" transform="matrix(0.133333 0 0 -0.133333 25.1043 563.43)"><g id="e2VoZKrSehy100" clip-path="url(#e2VoZKrSehy103)"><g id="e2VoZKrSehy101"><path id="e2VoZKrSehy102" d="M2996.63,2802.42L3316.63,3122.42L2756.63,3282.42Z" fill="url(#e2VoZKrSehy102-fill)" stroke="none" stroke-width="1"/></g><clipPath id="e2VoZKrSehy103"><path id="e2VoZKrSehy104" d="M2996.63,2802.42L3316.63,3122.42L2756.63,3282.42Z" fill="rgb(0,0,0)" stroke="none" stroke-width="1"/></clipPath></g></g><g id="e2VoZKrSehy105" transform="matrix(0.133333 0 0 -0.133333 25.1043 563.43)"><g id="e2VoZKrSehy106" clip-path="url(#e2VoZKrSehy109)"><g id="e2VoZKrSehy107"><path id="e2VoZKrSehy108" d="M3156.63,3452.42L3316.63,3122.42L2756.63,3282.42Z" fill="url(#e2VoZKrSehy108-fill)" stroke="none" stroke-width="1"/></g><clipPath id="e2VoZKrSehy109"><path id="e2VoZKrSehy110" d="M3156.63,3452.42L3316.63,3122.42L2756.63,3282.42Z" fill="rgb(0,0,0)" stroke="none" stroke-width="1"/></clipPath></g></g><g id="e2VoZKrSehy111" transform="matrix(0.133333 0 0 -0.133333 25.1043 563.43)"><g id="e2VoZKrSehy112" clip-path="url(#e2VoZKrSehy115)"><g id="e2VoZKrSehy113"><path id="e2VoZKrSehy114" d="M2756.63,3282.42L3156.63,3452.42L2906.63,3642.42Z" fill="url(#e2VoZKrSehy114-fill)" stroke="none" stroke-width="1"/></g><clipPath id="e2VoZKrSehy115"><path id="e2VoZKrSehy116" d="M2756.63,3282.42L3156.63,3452.42L2906.63,3642.42Z" fill="rgb(0,0,0)" stroke="none" stroke-width="1"/></clipPath></g></g><g id="e2VoZKrSehy117" transform="matrix(0.133333 0 0 -0.133333 25.1043 563.43)"><g id="e2VoZKrSehy118" clip-path="url(#e2VoZKrSehy121)"><g id="e2VoZKrSehy119"><path id="e2VoZKrSehy120" d="M2906.63,3642.42L3156.63,3452.42L3236.63,3812.42Z" fill="url(#e2VoZKrSehy120-fill)" stroke="none" stroke-width="1"/></g><clipPath id="e2VoZKrSehy121"><path id="e2VoZKrSehy122" d="M2906.63,3642.42L3156.63,3452.42L3236.63,3812.42Z" fill="rgb(0,0,0)" stroke="none" stroke-width="1"/></clipPath></g></g><g id="e2VoZKrSehy123" transform="matrix(0.133333 0 0 -0.133333 25.1043 563.43)"><g id="e2VoZKrSehy124" clip-path="url(#e2VoZKrSehy127)"><g id="e2VoZKrSehy125"><path id="e2VoZKrSehy126" d="M3156.63,3452.42L3446.63,3482.42L3236.63,3812.42Z" fill="url(#e2VoZKrSehy126-fill)" stroke="none" stroke-width="1"/></g><clipPath id="e2VoZKrSehy127"><path id="e2VoZKrSehy128" d="M3156.63,3452.42L3446.63,3482.42L3236.63,3812.42Z" fill="rgb(0,0,0)" stroke="none" stroke-width="1"/></clipPath></g></g><g id="e2VoZKrSehy129" transform="matrix(0.133333 0 0 -0.133333 25.1043 563.43)"><g id="e2VoZKrSehy130" clip-path="url(#e2VoZKrSehy133)"><g id="e2VoZKrSehy131"><path id="e2VoZKrSehy132" d="M3341.63,3962.42L3446.63,3482.42L3236.63,3812.42Z" fill="url(#e2VoZKrSehy132-fill)" stroke="none" stroke-width="1"/></g><clipPath id="e2VoZKrSehy133"><path id="e2VoZKrSehy134" d="M3341.63,3962.42L3446.63,3482.42L3236.63,3812.42Z" fill="rgb(0,0,0)" stroke="none" stroke-width="1"/></clipPath></g></g><g id="e2VoZKrSehy135" transform="matrix(0.133333 0 0 -0.133333 25.1043 563.43)"><g id="e2VoZKrSehy136" clip-path="url(#e2VoZKrSehy139)"><g id="e2VoZKrSehy137"><path id="e2VoZKrSehy138" d="M3341.63,3962.42L3756.63,3772.42L3487.88,4066.17Z" fill="url(#e2VoZKrSehy138-fill)" stroke="none" stroke-width="1"/></g><clipPath id="e2VoZKrSehy139"><path id="e2VoZKrSehy140" d="M3341.63,3962.42L3756.63,3772.42L3487.88,4066.17Z" fill="rgb(0,0,0)" stroke="none" stroke-width="1"/></clipPath></g></g><g id="e2VoZKrSehy141" transform="matrix(0.133333 0 0 -0.133333 25.1043 563.43)"><g id="e2VoZKrSehy142" clip-path="url(#e2VoZKrSehy145)"><g id="e2VoZKrSehy143"><path id="e2VoZKrSehy144" d="M3622.26,4142.42L3756.63,3772.42L3487.88,4066.17Z" fill="url(#e2VoZKrSehy144-fill)" stroke="none" stroke-width="1"/></g><clipPath id="e2VoZKrSehy145"><path id="e2VoZKrSehy146" d="M3622.26,4142.42L3756.63,3772.42L3487.88,4066.17Z" fill="rgb(0,0,0)" stroke="none" stroke-width="1"/></clipPath></g></g><g id="e2VoZKrSehy147" transform="matrix(0.133333 0 0 -0.133333 25.1043 563.43)"><g id="e2VoZKrSehy148" clip-path="url(#e2VoZKrSehy151)"><g id="e2VoZKrSehy149"><path id="e2VoZKrSehy150" d="M2756.63,3282.42L2906.63,3642.42L2586.63,3722.42Z" fill="url(#e2VoZKrSehy150-fill)" stroke="none" stroke-width="1"/></g><clipPath id="e2VoZKrSehy151"><path id="e2VoZKrSehy152" d="M2756.63,3282.42L2906.63,3642.42L2586.63,3722.42Z" fill="rgb(0,0,0)" stroke="none" stroke-width="1"/></clipPath></g></g><g id="e2VoZKrSehy153" transform="matrix(0.133333 0 0 -0.133333 25.1043 563.43)"><g id="e2VoZKrSehy154" clip-path="url(#e2VoZKrSehy157)"><g id="e2VoZKrSehy155"><path id="e2VoZKrSehy156" d="M2906.63,3642.42L2916.63,4122.42L2586.63,3722.42Z" fill="url(#e2VoZKrSehy156-fill)" stroke="none" stroke-width="1"/></g><clipPath id="e2VoZKrSehy157"><path id="e2VoZKrSehy158" d="M2906.63,3642.42L2916.63,4122.42L2586.63,3722.42Z" fill="rgb(0,0,0)" stroke="none" stroke-width="1"/></clipPath></g></g><g id="e2VoZKrSehy159" transform="matrix(0.133333 0 0 -0.133333 25.1043 563.43)"><g id="e2VoZKrSehy160" clip-path="url(#e2VoZKrSehy163)"><g id="e2VoZKrSehy161"><path id="e2VoZKrSehy162" d="M2586.63,3722.42L2916.63,4122.42L2506.63,3962.42Z" fill="url(#e2VoZKrSehy162-fill)" stroke="none" stroke-width="1"/></g><clipPath id="e2VoZKrSehy163"><path id="e2VoZKrSehy164" d="M2586.63,3722.42L2916.63,4122.42L2506.63,3962.42Z" fill="rgb(0,0,0)" stroke="none" stroke-width="1"/></clipPath></g></g><g id="e2VoZKrSehy165" transform="matrix(0.133333 0 0 -0.133333 25.1043 563.43)"><g id="e2VoZKrSehy166" clip-path="url(#e2VoZKrSehy169)"><g id="e2VoZKrSehy167"><path id="e2VoZKrSehy168" d="M2506.63,3962.42L2916.63,4122.42L2479.13,4066.17Z" fill="url(#e2VoZKrSehy168-fill)" stroke="none" stroke-width="1"/></g><clipPath id="e2VoZKrSehy169"><path id="e2VoZKrSehy170" d="M2506.63,3962.42L2916.63,4122.42L2479.13,4066.17Z" fill="rgb(0,0,0)" stroke="none" stroke-width="1"/></clipPath></g></g><g id="e2VoZKrSehy171" transform="matrix(0.133333 0 0 -0.133333 25.1043 563.43)"><g id="e2VoZKrSehy172" clip-path="url(#e2VoZKrSehy175)"><g id="e2VoZKrSehy173"><path id="e2VoZKrSehy174" d="M2479.13,4066.17L2506.63,3962.42L2268.3,3702.42Z" fill="url(#e2VoZKrSehy174-fill)" stroke="none" stroke-width="1"/></g><clipPath id="e2VoZKrSehy175"><path id="e2VoZKrSehy176" d="M2479.13,4066.17L2506.63,3962.42L2268.3,3702.42Z" fill="rgb(0,0,0)" stroke="none" stroke-width="1"/></clipPath></g></g><g id="e2VoZKrSehy177" transform="matrix(0.133333 0 0 -0.133333 25.1043 563.43)"><g id="e2VoZKrSehy178" clip-path="url(#e2VoZKrSehy181)"><g id="e2VoZKrSehy179"><path id="e2VoZKrSehy180" d="M2506.63,3962.42L2586.63,3722.42L2268.3,3702.42Z" fill="url(#e2VoZKrSehy180-fill)" stroke="none" stroke-width="1"/></g><clipPath id="e2VoZKrSehy181"><path id="e2VoZKrSehy182" d="M2506.63,3962.42L2586.63,3722.42L2268.3,3702.42Z" fill="rgb(0,0,0)" stroke="none" stroke-width="1"/></clipPath></g></g><g id="e2VoZKrSehy183" transform="matrix(0.133333 0 0 -0.133333 25.1043 563.43)"><g id="e2VoZKrSehy184" clip-path="url(#e2VoZKrSehy187)"><g id="e2VoZKrSehy185"><path id="e2VoZKrSehy186" d="M2436.63,3172.42L2756.63,3282.42L2816.63,2732.42Z" fill="url(#e2VoZKrSehy186-fill)" stroke="none" stroke-width="1"/></g><clipPath id="e2VoZKrSehy187"><path id="e2VoZKrSehy188" d="M2436.63,3172.42L2756.63,3282.42L2816.63,2732.42Z" fill="rgb(0,0,0)" stroke="none" stroke-width="1"/></clipPath></g></g><g id="e2VoZKrSehy189" transform="matrix(0.133333 0 0 -0.133333 25.1043 563.43)"><g id="e2VoZKrSehy190" clip-path="url(#e2VoZKrSehy193)"><g id="e2VoZKrSehy191"><path id="e2VoZKrSehy192" d="M2756.63,3282.42L2996.63,2802.42L2816.63,2732.42Z" fill="url(#e2VoZKrSehy192-fill)" stroke="none" stroke-width="1"/></g><clipPath id="e2VoZKrSehy193"><path id="e2VoZKrSehy194" d="M2756.63,3282.42L2996.63,2802.42L2816.63,2732.42Z" fill="rgb(0,0,0)" stroke="none" stroke-width="1"/></clipPath></g></g><g id="e2VoZKrSehy195" transform="matrix(0.133333 0 0 -0.133333 25.1043 563.43)"><g id="e2VoZKrSehy196" clip-path="url(#e2VoZKrSehy199)"><g id="e2VoZKrSehy197"><path id="e2VoZKrSehy198" d="M2996.63,2802.42L3216.63,2442.42L2816.63,2732.42Z" fill="url(#e2VoZKrSehy198-fill)" stroke="none" stroke-width="1"/></g><clipPath id="e2VoZKrSehy199"><path id="e2VoZKrSehy200" d="M2996.63,2802.42L3216.63,2442.42L2816.63,2732.42Z" fill="rgb(0,0,0)" stroke="none" stroke-width="1"/></clipPath></g></g><g id="e2VoZKrSehy201" transform="matrix(0.133333 0 0 -0.133333 25.1043 563.43)"><g id="e2VoZKrSehy202" clip-path="url(#e2VoZKrSehy205)"><g id="e2VoZKrSehy203"><path id="e2VoZKrSehy204" d="M3622.26,4142.42L3756.63,3772.42L3794.13,4172.42Z" fill="url(#e2VoZKrSehy204-fill)" stroke="none" stroke-width="1"/></g><clipPath id="e2VoZKrSehy205"><path id="e2VoZKrSehy206" d="M3622.26,4142.42L3756.63,3772.42L3794.13,4172.42Z" fill="rgb(0,0,0)" stroke="none" stroke-width="1"/></clipPath></g></g><g id="e2VoZKrSehy207" transform="matrix(0.133333 0 0 -0.133333 25.1043 563.43)"><g id="e2VoZKrSehy208" clip-path="url(#e2VoZKrSehy211)"><g id="e2VoZKrSehy209"><path id="e2VoZKrSehy210" d="M3756.63,3772.42L3986.63,4122.42L3794.13,4172.42Z" fill="url(#e2VoZKrSehy210-fill)" stroke="none" stroke-width="1"/></g><clipPath id="e2VoZKrSehy211"><path id="e2VoZKrSehy212" d="M3756.63,3772.42L3986.63,4122.42L3794.13,4172.42Z" fill="rgb(0,0,0)" stroke="none" stroke-width="1"/></clipPath></g></g><g id="e2VoZKrSehy213" transform="matrix(0.133333 0 0 -0.133333 25.1043 563.43)"><g id="e2VoZKrSehy214" clip-path="url(#e2VoZKrSehy217)"><g id="e2VoZKrSehy215"><path id="e2VoZKrSehy216" d="M3756.63,3772.42L3986.63,4122.42L4086.63,4002.42Z" fill="url(#e2VoZKrSehy216-fill)" stroke="none" stroke-width="1"/></g><clipPath id="e2VoZKrSehy217"><path id="e2VoZKrSehy218" d="M3756.63,3772.42L3986.63,4122.42L4086.63,4002.42Z" fill="rgb(0,0,0)" stroke="none" stroke-width="1"/></clipPath></g></g><g id="e2VoZKrSehy219" transform="matrix(0.133333 0 0 -0.133333 25.1043 563.43)"><g id="e2VoZKrSehy220" clip-path="url(#e2VoZKrSehy223)"><g id="e2VoZKrSehy221"><path id="e2VoZKrSehy222" d="M3756.63,3772.42L3996.63,3732.42L4086.63,4002.42Z" fill="url(#e2VoZKrSehy222-fill)" stroke="none" stroke-width="1"/></g><clipPath id="e2VoZKrSehy223"><path id="e2VoZKrSehy224" d="M3756.63,3772.42L3996.63,3732.42L4086.63,4002.42Z" fill="rgb(0,0,0)" stroke="none" stroke-width="1"/></clipPath></g></g><g id="e2VoZKrSehy225" transform="matrix(0.133333 0 0 -0.133333 25.1043 563.43)"><g id="e2VoZKrSehy226" clip-path="url(#e2VoZKrSehy229)"><g id="e2VoZKrSehy227"><path id="e2VoZKrSehy228" d="M3996.63,3732.42L4216.63,3742.42L4086.63,4002.42Z" fill="url(#e2VoZKrSehy228-fill)" stroke="none" stroke-width="1"/></g><clipPath id="e2VoZKrSehy229"><path id="e2VoZKrSehy230" d="M3996.63,3732.42L4216.63,3742.42L4086.63,4002.42Z" fill="rgb(0,0,0)" stroke="none" stroke-width="1"/></clipPath></g></g><g id="e2VoZKrSehy231" transform="matrix(0.133333 0 0 -0.133333 25.1043 563.43)"><g id="e2VoZKrSehy232" clip-path="url(#e2VoZKrSehy235)"><g id="e2VoZKrSehy233"><path id="e2VoZKrSehy234" d="M2268.3,3702.42L2586.63,3722.42L2336.63,3342.42Z" fill="url(#e2VoZKrSehy234-fill)" stroke="none" stroke-width="1"/></g><clipPath id="e2VoZKrSehy235"><path id="e2VoZKrSehy236" d="M2268.3,3702.42L2586.63,3722.42L2336.63,3342.42Z" fill="rgb(0,0,0)" stroke="none" stroke-width="1"/></clipPath></g></g><g id="e2VoZKrSehy237" transform="matrix(0.133333 0 0 -0.133333 25.1043 563.43)"><g id="e2VoZKrSehy238" clip-path="url(#e2VoZKrSehy241)"><g id="e2VoZKrSehy239"><path id="e2VoZKrSehy240" d="M2436.63,3172.42L2756.63,3282.42L2336.63,3342.42Z" fill="url(#e2VoZKrSehy240-fill)" stroke="none" stroke-width="1"/></g><clipPath id="e2VoZKrSehy241"><path id="e2VoZKrSehy242" d="M2436.63,3172.42L2756.63,3282.42L2336.63,3342.42Z" fill="rgb(0,0,0)" stroke="none" stroke-width="1"/></clipPath></g></g><g id="e2VoZKrSehy243" transform="matrix(0.133333 0 0 -0.133333 25.1043 563.43)"><g id="e2VoZKrSehy244" clip-path="url(#e2VoZKrSehy247)"><g id="e2VoZKrSehy245"><path id="e2VoZKrSehy246" d="M2586.63,3722.42L2756.63,3282.42L2336.63,3342.42Z" fill="url(#e2VoZKrSehy246-fill)" stroke="none" stroke-width="1"/></g><clipPath id="e2VoZKrSehy247"><path id="e2VoZKrSehy248" d="M2586.63,3722.42L2756.63,3282.42L2336.63,3342.42Z" fill="rgb(0,0,0)" stroke="none" stroke-width="1"/></clipPath></g></g><g id="e2VoZKrSehy249" transform="matrix(0.133333 0 0 -0.133333 25.1043 563.43)"><g id="e2VoZKrSehy250" clip-path="url(#e2VoZKrSehy253)"><g id="e2VoZKrSehy251"><path id="e2VoZKrSehy252" d="M2906.63,3642.42L2916.63,4122.42L3116.63,3962.42Z" fill="url(#e2VoZKrSehy252-fill)" stroke="none" stroke-width="1"/></g><clipPath id="e2VoZKrSehy253"><path id="e2VoZKrSehy254" d="M2906.63,3642.42L2916.63,4122.42L3116.63,3962.42Z" fill="rgb(0,0,0)" stroke="none" stroke-width="1"/></clipPath></g></g><g id="e2VoZKrSehy255" transform="matrix(0.133333 0 0 -0.133333 25.1043 563.43)"><g id="e2VoZKrSehy256" clip-path="url(#e2VoZKrSehy259)"><g id="e2VoZKrSehy257"><path id="e2VoZKrSehy258" d="M2906.63,3642.42L3236.63,3812.42L3116.63,3962.42Z" fill="url(#e2VoZKrSehy258-fill)" stroke="none" stroke-width="1"/></g><clipPath id="e2VoZKrSehy259"><path id="e2VoZKrSehy260" d="M2906.63,3642.42L3236.63,3812.42L3116.63,3962.42Z" fill="rgb(0,0,0)" stroke="none" stroke-width="1"/></clipPath></g></g></g></svg>